<svg height="200" viewBox="0 0 600 239.60696" width="500" xmlns="http://www.w3.org/2000/svg"><g transform="matrix(.83616074 0 0 .83616074 -118.26207 -300.15152)"><g><path d="m361.52 545.67c-1.24-12.89-2.47-25.75-3.79-39.46 1.98 1.08 3.46 1.79 4.83 2.65 25.67 16.18 53.72 20.91 83.56 16.17 4.92-.78 9.97-2.61 14.24-5.12 14.44-8.49 14.84-26.9.24-34.84-9.19-5-19.55-8.13-29.64-11.33-13.93-4.42-28.21-7.76-42.13-12.2-21.08-6.72-33.51-26.71-31.6-50.21 2.24-27.68 19.91-41.83 45.74-48.16 29.13-7.13 58.15-4.58 86.86 3.04.83.22 1.57.72 2.89 1.34.84 11.65 1.68 23.43 2.61 36.37-2.49-.92-4.22-1.47-5.87-2.19-23.83-10.44-48.73-12.73-74.27-8.74-4.66.73-9.47 2.76-13.38 5.37-9.49 6.33-10.34 18.52-1.42 25.44 5.62 4.36 12.33 7.92 19.13 10.16 12.38 4.09 25.22 6.81 37.8 10.34 7.46 2.09 14.96 4.22 22.12 7.08 22.61 9.02 32.31 26.21 30.31 51.65-2.61 33.2-25.87 48.47-53.78 53.33-29.79 5.18-59.27 2.59-87.91-7.36-1.46-.51-2.9-1.11-4.29-1.78-.78-.38-1.43-.98-2.24-1.56z" fill="#383e57"/><path d="m701.08 369.16c.56 13.03 1.08 25.19 1.65 38.28-2.97-1.24-5.36-2.19-7.71-3.24-19.25-8.58-39.24-13.42-60.6-12.84-37.13 1-62.62 25.7-62.84 61.97-.05 8.17.48 16.59 2.49 24.47 7.03 27.51 31.07 45.65 60.5 47.54 24.7 1.59 47.58-3.87 69.37-14.78 1.92-.96 3.87-1.87 6.74-3.25-1.9 14.04-3.67 27.19-5.56 41.18-3.36 1.18-6.98 2.73-10.76 3.72-29.44 7.72-59.29 8.82-89.05 2.85-39.49-7.91-66.65-36.17-74-75.48-3.27-17.5-3.11-35.05 1.56-52.23 9.14-33.63 31.94-54.46 65.81-63.5 30.1-8.03 60.28-5.16 90.21 1.88 4.24 1 8.4 2.35 12.22 3.44z" fill="#383e57"/><path d="m212.37 467.29c-9.79-3.3-17.3-8.22-23.74-16.25 1.78-6.22 3.1-12.85 5.61-19.02 2.43-5.98 6.07-11.49 8.51-18.09-7.74 6.67-15.49 13.34-24.08 20.74-4.19-8.74-5.14-17.02-4.11-25.95 10.48-8.49 22.55-13.33 35.99-15.25-.02-.49-.03-.98-.05-1.46-10.04-.71-20.07-1.41-30.07-2.11.65-5.85 5.73-13.22 13.79-19.33 10.35 2.07 19.8 6.79 28.63 14.92-2.85-8.24-5.29-15.3-7.95-22.99 10.79-3.9 20.56-3.31 31.73-.5-2.19 7.11-4.18 13.56-6.09 19.76 8.7-4.07 17.37-8.12 27.01-12.62 5.43 7.26 10.13 13.56 15.37 20.56-11.63.86-21.61 1.59-31.58 2.32-.05.51-.11 1.02-.16 1.53 13.22 1.76 24.71 7.26 35.08 14.6 1.94 7.54.78 17.21-3.36 25.97-4.43-3.81-8.61-7.44-12.84-11.02-4.16-3.52-8.38-6.97-13.29-10.04 7.8 11.84 14.31 24.03 15.72 38.92-5.55 7.25-13.09 12.41-22.98 16.09-1.59-10.84-2.53-20.91-4.66-30.74-2.13-9.84-9.64-28.92-10.34-28.82 1.45 27.33 2.9 54.65 4.38 82.65-2.33 1.59-4.99 3.4-7.85 5.35-3.05-2.09-5.74-3.93-8.89-6.08.46-5.65 3.97-62.82 4.52-81.52-8.37 18.42-12 37.94-14.29 58.37z" fill="#d5ab5b"/><path d="m770.67 528.28c3.54-1.22 61.78-.06 86.21-7.06 1-.29 2.12-.44 2.12-.44v37.62h-126.61z" fill="#383e57"/><path d="m819.08 474.7c-29.65-.85-57.56-7.4-85.35-15.7 27.72-8.34 55.56-15.03 85.35-15.68z" fill="#d6ac58"/><path d="m770.67 389.51c3.54 1.22 61.78.06 86.21 7.06 1 .29 2.12.44 2.12.44v-37.62h-126.61z" fill="#383e57"/><path d="m307.17 464.82s13.18-20.54 12.87-20.89c-14.16 9.62-52.8 35.85-89.3 60.62-36.5-24.78-75.14-51.01-89.3-60.62-.31.35 12.87 20.89 12.87 20.89.73 1 31.84 26.19 61.34 49.98-33.71 22.88-62.11 42.16-62.11 42.16h39.91s16.7-13.41 37.29-30c20.59 16.58 37.29 30 37.29 30h39.91s-28.4-19.28-62.11-42.16c29.5-23.79 60.61-48.98 61.34-49.98z" fill="#d5ab5b"/></g><g fill="#383e57"><g><path d="m375.84 589.35c1.44 0 2.17-.78 2.17-2.33s-.73-2.35-2.17-2.35-2.17.78-2.17 2.35.72 2.33 2.17 2.33z"/><path d="m394.86 610.4c-1.45 0-2.17.78-2.17 2.35s.72 2.33 2.17 2.33 2.18-.78 2.18-2.33-.73-2.35-2.18-2.35z"/><path d="m401.27 610.4c-1.45 0-2.18.78-2.18 2.35s.73 2.33 2.18 2.33 2.17-.78 2.17-2.33-.72-2.35-2.17-2.35z"/><path d="m432.66 605.56h-2.59c-1.34 0-2.43-.43-3.28-1.3-.85-.86-1.28-1.98-1.28-3.34v-9.13h-3.56v13.76h-2.59c-1.33 0-2.42-.43-3.28-1.3-.85-.86-1.28-1.98-1.28-3.34v-9.13h-3.55v13.76h-6.86c-1.25 0-2.25-.36-3.01-1.08s-1.14-1.7-1.14-2.92v-13.01h-3.72v17.01h-5.56c-1.24 0-2.24-.36-3-1.08s-1.15-1.7-1.15-2.92v-13.01h-3.55v20.36c0 4.46-2.34 6.7-7.02 6.7h-2.04c-1.76 0-3.1-.62-4.04-1.85s-1.41-2.97-1.41-5.22c0-3.51.48-6.52 1.43-9.01h-3.47c-1.14 2.8-1.71 5.89-1.71 9.25 0 3.13.77 5.59 2.29 7.39 1.53 1.8 3.58 2.7 6.12 2.7h3c6.94 0 10.41-3.41 10.41-10.21v-2.22c.71 1.4 2.1 2.07 3.99 2.24v.15h9.44v-2.39c.81 1.59 2.37 2.39 4.7 2.39h9.86v-2.39c.78 1.59 2.34 2.39 4.67 2.39h6.03v-2.39c.78 1.59 2.33 2.39 4.67 2.39h6.02v-20.28h-3.55v17.01z"/><path d="m469.87 584.7c1.45 0 2.17-.78 2.17-2.33s-.72-2.35-2.17-2.35-2.17.78-2.17 2.35.73 2.33 2.17 2.33z"/><path d="m557.13 605.56h-6.39c-1.25 0-2.25-.36-3.01-1.08s-1.14-1.7-1.14-2.92v-24.5h-3.72v28.51h-12.21c1.02-.71 1.84-1.75 2.46-3.11.62-1.37.93-2.78.93-4.24 0-3.16-.88-5.63-2.64-7.41-1.76-1.79-4.06-2.68-6.9-2.68s-5.29 1.05-7.1 3.15-2.72 4.78-2.72 8.07c0 2.69.46 4.77 1.39 6.23h-9.37v-10.19c0-4.45-1.23-7.91-3.7-10.38-2.46-2.47-5.97-3.7-10.52-3.7-3.24 0-6.14.43-8.7 1.31l.96 3.23c2.45-.81 5.03-1.22 7.74-1.22 3.67 0 6.37.92 8.09 2.77 1.71 1.84 2.58 4.62 2.58 8.32v9.86h-6.31v-14.93h-5.07c-3.64 0-6.45.78-8.45 2.34s-3 3.76-3 6.61c0 2.68.97 4.68 2.92 5.98h-7.35c-1.25 0-2.25-.36-3.01-1.08s-1.14-1.7-1.14-2.92v-13.01h-3.72v17.01h-5.55c-1.14 0-2.2-.42-3.17-1.28-.98-.85-1.59-1.79-1.85-2.81-1.96-7.57-5.37-12.32-10.23-14.24l-1.34 3.19c4.49 2.08 7.45 7.13 8.86 15.13h-13.93v3.27h17.52v-2.35c1 1.47 2.34 2.19 3.98 2.28v.07h9.44v-2.39c.81 1.59 2.37 2.39 4.7 2.39h70.15v-2.39c.81 1.59 2.37 2.39 4.7 2.39h9.55v-31.78h-3.72v28.51zm-63.84 0h-3.44c-1.74 0-3.14-.53-4.22-1.6-1.07-1.07-1.6-2.48-1.6-4.24 0-3.88 2.53-5.82 7.57-5.82h1.68v11.66zm35.28-1.97c-1.15 1.32-2.78 1.97-4.89 1.97h-3.8c-.98-1.35-1.47-3.42-1.47-6.23 0-2.44.58-4.38 1.73-5.82 1.16-1.44 2.6-2.17 4.33-2.17s3.15.6 4.22 1.8 1.6 2.85 1.6 4.94c0 2.36-.57 4.19-1.72 5.5z"/><path d="m590.74 584.7c1.45 0 2.17-.78 2.17-2.33s-.72-2.35-2.17-2.35-2.18.78-2.18 2.35.73 2.33 2.18 2.33z"/><path d="m584.33 584.7c1.45 0 2.18-.78 2.18-2.33s-.73-2.35-2.18-2.35-2.17.78-2.17 2.35.72 2.33 2.17 2.33z"/><path d="m603.1 610.4c-1.44 0-2.16.78-2.16 2.35s.72 2.33 2.16 2.33 2.18-.78 2.18-2.33-.73-2.35-2.18-2.35z"/><path d="m609.51 610.4c-1.46 0-2.18.78-2.18 2.35s.73 2.33 2.18 2.33 2.17-.78 2.17-2.33-.73-2.35-2.17-2.35z"/><path d="m608.92 588.55h-3.72v17.01h-9.86v-17.01h-6.31c-3.44 0-6.21.96-8.31 2.88-2.09 1.92-3.14 4.54-3.14 7.86 0 2.98.85 5.32 2.55 7 1.7 1.69 4.03 2.53 6.99 2.53h21.81v-20.28zm-17.13 17.01h-4.78c-3.81 0-5.72-2.1-5.72-6.31 0-2.33.68-4.15 2.05-5.47s3.31-1.98 5.81-1.98h2.64z"/><path d="m619.93 587.25-1.34 3.19c4.49 2.08 7.45 7.13 8.86 15.13h-13.93v3.27h17.52v-3.19c-1.7-10.03-5.41-16.17-11.11-18.4z"/><path d="m720.92 605.56h-5.56c-1.24 0-2.24-.36-3-1.08s-1.14-1.7-1.14-2.92v-13.01h-3.55v17.01h-2.59c-1.34 0-2.43-.43-3.28-1.3-.85-.86-1.28-1.98-1.28-3.34v-9.13h-3.56v13.76h-2.59c-1.33 0-2.42-.43-3.28-1.3-.85-.86-1.28-1.98-1.28-3.34v-9.13h-3.55v13.76h-10.64c-1.48 0-3.03-.29-4.64-.88 2.33-1.59 4.16-3.74 5.5-6.44s2.01-5.5 2.01-8.4c-2.15-1.75-5.2-2.63-9.15-2.63-2.17 0-4.3.48-6.38 1.44-2.09.96-3.77 2.29-5.04 3.99.34 2.29 1.21 4.57 2.61 6.83 1.39 2.26 2.95 4.02 4.66 5.26-1.34.56-3.01.84-4.98.84h-7.82v-17.01h-5.47c-3.44 0-6.21.96-8.31 2.88s-3.15 4.54-3.15 7.86c0 3.08.82 5.43 2.44 7.08 1.63 1.64 3.92 2.46 6.89 2.46h4.09v1.21c0 1.71-.55 3.07-1.64 4.07s-2.56 1.5-4.43 1.5-3.76-.56-5.92-1.68l-1.68 2.8c2.22 1.43 4.72 2.15 7.52 2.15 3.06 0 5.44-.8 7.12-2.39 1.69-1.59 2.53-3.81 2.53-6.66v-1h7.87c2.8 0 5.4-.7 7.78-2.08 2.59 1.39 5.17 2.08 7.74 2.08h14.02v-2.39c.78 1.59 2.34 2.39 4.67 2.39h6.03v-2.39c.78 1.59 2.33 2.39 4.67 2.39h6.02v-2.39c.71 1.4 2.1 2.07 3.99 2.24v.15h9.44v-31.78h-3.72v28.51zm-72.07 0h-3.92c-3.83 0-5.74-2.1-5.74-6.31 0-2.33.68-4.15 2.06-5.47 1.37-1.32 3.3-1.98 5.81-1.98h1.79zm19.24-2.72c-3.27-2.49-5.32-5.53-6.15-9.11.73-.9 1.83-1.67 3.29-2.31 1.45-.64 2.87-.96 4.25-.96 2.38 0 4.11.37 5.19 1.12-.29 4.75-2.48 8.5-6.58 11.25z"/><path d="m731.73999 577.06h3.72v31.780001h-3.72z"/><path d="m765.35 584.7c1.45 0 2.17-.78 2.17-2.33s-.72-2.35-2.17-2.35-2.18.78-2.18 2.35.73 2.33 2.18 2.33z"/><path d="m758.94 584.7c1.45 0 2.18-.78 2.18-2.33s-.73-2.35-2.18-2.35-2.17.78-2.17 2.35.72 2.33 2.17 2.33z"/><path d="m785.71 584.55v-2.04c-1.01.1-2.15.24-3.43.43l-.76.12c-.84-.45-1.26-1.1-1.26-1.96 0-1.43.73-2.15 2.18-2.15.73 0 1.43.17 2.08.51l.63-1.9c-.83-.41-1.75-.61-2.76-.61-1.31 0-2.34.33-3.11.99s-1.15 1.58-1.15 2.77c0 1.1.49 1.98 1.47 2.63l-1.98.29v1.94c.83-.16 2.27-.37 4.32-.63 2.04-.26 3.3-.39 3.77-.39z"/><path d="m792.39 610.4c-1.45 0-2.17.78-2.17 2.35s.72 2.33 2.17 2.33 2.18-.78 2.18-2.33-.73-2.35-2.18-2.35z"/><path d="m798.8 610.4c-1.45 0-2.18.78-2.18 2.35s.73 2.33 2.18 2.33 2.17-.78 2.17-2.33-.72-2.35-2.17-2.35z"/><path d="m842.45 605.56h-9.7v-10.19c0-4.45-1.23-7.91-3.7-10.38-2.46-2.47-5.97-3.7-10.52-3.7-3.24 0-6.14.43-8.7 1.31l.96 3.23c2.45-.81 5.03-1.22 7.74-1.22 3.67 0 6.37.92 8.09 2.77 1.71 1.84 2.58 4.62 2.58 8.32v9.86h-6.31v-14.93h-5.07c-3.64 0-6.45.78-8.45 2.34s-3 3.76-3 6.61c0 2.68.97 4.68 2.92 5.98h-7.35c-1.25 0-2.25-.36-3.01-1.08s-1.14-1.7-1.14-2.92v-13.01h-3.72v17.01h-6.4c-1.25 0-2.25-.36-3.01-1.08s-1.14-1.7-1.14-2.92v-13.01h-3.72v17.01h-9.86v-17.01h-6.31c-3.44 0-6.21.96-8.31 2.88-2.09 1.92-3.14 4.54-3.14 7.86 0 2.98.85 5.32 2.55 7 1.7 1.69 4.03 2.53 6.99 2.53h21.81v-2.39c.81 1.59 2.37 2.39 4.7 2.39h9.56v-2.39c.81 1.59 2.37 2.39 4.7 2.39h43.68v-31.78h-3.72v28.51zm-76.05 0h-4.78c-3.81 0-5.72-2.1-5.72-6.31 0-2.33.68-4.15 2.05-5.47s3.31-1.98 5.81-1.98h2.64zm52.94 0h-3.44c-1.74 0-3.14-.53-4.22-1.6-1.07-1.07-1.6-2.48-1.6-4.24 0-3.88 2.53-5.82 7.57-5.82h1.68v11.66z"/><path d="m853.27002 577.06h3.72v31.780001h-3.72z"/></g><g><path d="m364.17 642.03c.96.55 2.4 1.03 3.92 1.03 1.9 0 2.95-.89 2.95-2.21 0-1.23-.82-1.95-2.89-2.69-2.67-.96-4.37-2.38-4.37-4.71 0-2.64 2.21-4.66 5.72-4.66 1.75 0 3.05.38 3.89.81l-.72 2.38c-.58-.31-1.71-.77-3.22-.77-1.87 0-2.69 1.01-2.69 1.95 0 1.25.94 1.82 3.1 2.67 2.81 1.06 4.18 2.47 4.18 4.81 0 2.59-1.97 4.85-6.15 4.85-1.71 0-3.48-.48-4.38-1.01l.65-2.45z"/><path d="m387.86 640.66-1.39 4.59h-3.05l5.19-16.2h3.77l5.27 16.2h-3.17l-1.46-4.59h-5.14zm4.64-2.23-1.28-3.99c-.31-.99-.57-2.09-.82-3.03h-.04c-.24.94-.48 2.07-.77 3.03l-1.25 3.99z"/><path d="m409.98 629.06v9.44c0 3.17 1.32 4.64 3.31 4.64 2.14 0 3.41-1.46 3.41-4.64v-9.44h2.96v9.25c0 5-2.58 7.21-6.46 7.21s-6.18-2.09-6.18-7.19v-9.28h2.95z"/><path d="m430.97 629.27c1.29-.22 2.95-.34 4.71-.34 3.03 0 5.12.63 6.61 1.87 1.56 1.27 2.53 3.19 2.53 5.96s-.99 5.05-2.53 6.44c-1.61 1.46-4.18 2.21-7.33 2.21-1.73 0-3.03-.09-3.99-.22v-15.93zm2.95 13.72c.41.07 1.03.07 1.64.07 3.84.02 6.13-2.09 6.13-6.2.02-3.58-2.04-5.62-5.74-5.62-.94 0-1.61.07-2.02.17v11.58z"/><path d="m458.25 629.06v16.2h-2.95v-16.2z"/><path d="m494.03 644.77c-.7.36-2.23.72-4.18.72-5.14 0-8.26-3.22-8.26-8.15 0-5.33 3.7-8.55 8.65-8.55 1.95 0 3.34.41 3.94.72l-.65 2.36c-.77-.34-1.83-.63-3.17-.63-3.29 0-5.67 2.07-5.67 5.96 0 3.56 2.09 5.84 5.65 5.84 1.2 0 2.45-.24 3.22-.6l.48 2.33z"/><path d="m518.22 636.99c0 5.43-3.29 8.53-7.76 8.53s-7.45-3.48-7.45-8.24 3.12-8.48 7.69-8.48 7.52 3.58 7.52 8.19zm-12.08.24c0 3.29 1.65 5.91 4.49 5.91s4.47-2.64 4.47-6.03c0-3.05-1.51-5.94-4.47-5.94s-4.49 2.72-4.49 6.06z"/><path d="m528.68 645.25v-16.2h3.36l4.18 6.95c1.08 1.8 2.02 3.68 2.76 5.43h.05c-.2-2.16-.27-4.25-.27-6.73v-5.65h2.74v16.2h-3.05l-4.23-7.11c-1.03-1.78-2.11-3.77-2.91-5.6l-.07.02c.12 2.09.14 4.23.14 6.9v5.79h-2.71z"/><path d="m564.44 644.77c-.7.36-2.23.72-4.18.72-5.14 0-8.26-3.22-8.26-8.15 0-5.33 3.7-8.55 8.65-8.55 1.95 0 3.34.41 3.94.72l-.65 2.36c-.77-.34-1.83-.63-3.17-.63-3.3 0-5.67 2.07-5.67 5.96 0 3.56 2.09 5.84 5.65 5.84 1.2 0 2.45-.24 3.22-.6l.48 2.33z"/><path d="m577.84 629.06v16.2h-2.95v-16.2z"/><path d="m589.14 629.06h2.95v13.72h6.66v2.47h-9.61v-16.2z"/><path d="m636.15 636.99c0 5.43-3.29 8.53-7.76 8.53s-7.45-3.48-7.45-8.24 3.12-8.48 7.69-8.48 7.52 3.58 7.52 8.19zm-12.08.24c0 3.29 1.65 5.91 4.49 5.91s4.47-2.64 4.47-6.03c0-3.05-1.51-5.94-4.47-5.94s-4.49 2.72-4.49 6.06z"/><path d="m646.62 629.06h9.34v2.43h-6.39v4.47h5.96v2.43h-5.96v6.87h-2.95z"/><path d="m688.7 638.07h-6.1v4.76h6.82v2.43h-9.78v-16.2h9.42v2.43h-6.46v4.18h6.1z"/><path d="m699.93 645.25v-16.2h3.36l4.18 6.95c1.08 1.8 2.02 3.68 2.76 5.43h.05c-.2-2.16-.27-4.25-.27-6.73v-5.65h2.74v16.2h-3.05l-4.23-7.11c-1.03-1.78-2.11-3.77-2.91-5.6l-.07.02c.12 2.09.15 4.23.15 6.9v5.79h-2.72z"/><path d="m737.06 644.51c-1.04.38-3.05.91-5.22.91-2.74 0-4.8-.7-6.34-2.16-1.44-1.37-2.28-3.51-2.26-5.96 0-5.12 3.65-8.41 9.01-8.41 2 0 3.56.41 4.3.77l-.65 2.38c-.89-.38-1.97-.7-3.68-.7-3.46 0-5.88 2.04-5.88 5.82s2.26 5.87 5.62 5.87c1.06 0 1.85-.15 2.23-.34v-4.04h-2.86v-2.33h5.72v8.2z"/><path d="m750.96 629.06v16.2h-2.95v-16.2z"/><path d="m762.26 645.25v-16.2h3.36l4.18 6.95c1.08 1.8 2.02 3.68 2.76 5.43h.05c-.2-2.16-.27-4.25-.27-6.73v-5.65h2.74v16.2h-3.05l-4.23-7.11c-1.03-1.78-2.11-3.77-2.91-5.6l-.07.02c.12 2.09.14 4.23.14 6.9v5.79h-2.71z"/><path d="m795.48 638.07h-6.1v4.76h6.82v2.43h-9.78v-16.2h9.42v2.43h-6.46v4.18h6.1z"/><path d="m815.76 638.07h-6.1v4.76h6.82v2.43h-9.78v-16.2h9.42v2.43h-6.46v4.18h6.1z"/><path d="m826.99 629.27c1.1-.19 2.76-.34 4.47-.34 2.33 0 3.92.38 5 1.3.89.74 1.39 1.87 1.39 3.24 0 2.09-1.42 3.51-2.93 4.06v.07c1.15.43 1.85 1.56 2.26 3.12.51 2.02.94 3.89 1.28 4.52h-3.05c-.24-.48-.63-1.8-1.08-3.82-.46-2.11-1.23-2.79-2.91-2.83h-1.49v6.66h-2.93v-15.98zm2.93 7.16h1.75c2 0 3.25-1.06 3.25-2.67 0-1.78-1.25-2.6-3.17-2.6-.93 0-1.54.07-1.82.14v5.12z"/><path d="m848.51 642.03c.96.55 2.4 1.03 3.92 1.03 1.9 0 2.95-.89 2.95-2.21 0-1.23-.82-1.95-2.89-2.69-2.67-.96-4.37-2.38-4.37-4.71 0-2.64 2.21-4.66 5.72-4.66 1.75 0 3.05.38 3.89.81l-.72 2.38c-.58-.31-1.71-.77-3.22-.77-1.87 0-2.69 1.01-2.69 1.95 0 1.25.94 1.82 3.1 2.67 2.81 1.06 4.18 2.47 4.18 4.81 0 2.59-1.97 4.85-6.15 4.85-1.71 0-3.48-.48-4.38-1.01l.65-2.45z"/></g></g></g></svg>